<svg viewBox="0 0 1024 1024" xmlns="http://www.w3.org/2000/svg">
  <path
    d="M512 94 190 214v244c0 214 128 394 322 472 194-78 322-258 322-472V214L512 94Z"
    fill="currentColor"
    opacity=".14"
  />
  <path
    d="M512 126 222 234v220c0 193 113 353 290 426 177-73 290-233 290-426V234L512 126Zm0 72 226 84v172c0 151-84 280-226 347-142-67-226-196-226-347V282l226-84Z"
    fill="currentColor"
  />
  <path
    d="M342 374c0-54 76-96 170-96s170 42 170 96-76 96-170 96-170-42-170-96Zm68 0c0 15 38 36 102 36s102-21 102-36-38-36-102-36-102 21-102 36Z"
    fill="currentColor"
  />
  <path
    d="M342 438c38 35 101 54 170 54s132-19 170-54v84c0 54-76 96-170 96s-170-42-170-96v-84Zm0 148c38 35 101 54 170 54s132-19 170-54v42c0 54-76 96-170 96s-170-42-170-96v-42Z"
    fill="currentColor"
  />
</svg>
